<?xml version="1.0" encoding="utf-8"?>
<!-- Generator: Adobe Illustrator 23.1.1, SVG Export Plug-In . SVG Version: 6.00 Build 0)  -->
<svg version="1.1" id="Capa_1" xmlns="http://www.w3.org/2000/svg" xmlns:xlink="http://www.w3.org/1999/xlink" x="0px" y="0px"
	 viewBox="0 0 31 31" style="enable-background:new 0 0 31 31;" xml:space="preserve">
<style type="text/css">
	.st0{fill:#CD6A5F;}
	.st1{opacity:0.3;fill:#040006;}
	.st2{fill:#253137;}
	.st3{opacity:0.2;}
	.st4{fill:#FFFFFF;}
</style>
<g>
	<g>
		<polygon class="st0" points="6.6,22.7 8.9,27.9 10.1,27.9 10.2,27.5 10.4,27.9 11.2,27.9 11.1,24.9 11,23.1 		"/>
		<polygon class="st1" points="6.6,22.7 8.9,27.9 10.1,27.9 10.2,27.5 10.4,27.9 11.2,27.9 11.1,24.9 11,23.1 		"/>
		<polygon class="st0" points="16.8,23.3 19.1,27.9 20.2,27.9 20.4,27.5 20.6,27.9 21.3,27.9 21.2,25.1 21.2,23.5 		"/>
		<polygon class="st1" points="16.8,23.3 19.1,27.9 20.2,27.9 20.4,27.5 20.6,27.9 21.3,27.9 21.2,25.1 21.2,23.5 		"/>
		<g>
			<path class="st0" d="M29.8,9.7C29.8,9.7,29.8,9.7,29.8,9.7C29.8,9.7,29.8,9.7,29.8,9.7c0.1,0.1,0.2,0.1,0.3,0.2
				c0.1,0.1,0.2,0.2,0.3,0.3c0.1,0.1,0.1,0.3,0.2,0.5c0,0.2,0,0.4-0.2,0.6c-0.1,0.2-0.3,0.4-0.6,0.5c-0.2,0.1-0.5,0.1-0.8,0
				c-0.1-0.1-0.2-0.2-0.3-0.3c-0.1-0.1-0.1-0.3,0-0.4c0.1-0.1,0.2-0.2,0.4-0.2c0.2,0,0.3,0,0.4,0.1c0.2,0.2,0.3,0.5,0.3,0.7
				c0,0.3-0.1,0.5-0.3,0.7c-0.1,0.1-0.2,0.2-0.3,0.2c-0.1,0.1-0.2,0.1-0.3,0.1c-0.2,0.1-0.4,0.1-0.5,0c-0.2,0-0.3-0.1-0.4-0.1
				c-0.1,0-0.2-0.1-0.2-0.1c0,0,0,0-0.1,0c0,0,0,0,0,0c0,0,0.1,0.1,0.3,0.2c0.1,0,0.2,0.1,0.4,0.1c0.2,0,0.3,0,0.5,0
				c0.1,0,0.2-0.1,0.3-0.1c0.1-0.1,0.2-0.1,0.2-0.2c0.1-0.2,0.2-0.4,0.2-0.7c0-0.3-0.1-0.5-0.3-0.7c-0.1-0.1-0.2-0.1-0.4-0.1
				c-0.1,0-0.3,0.1-0.4,0.2c-0.1,0.1-0.1,0.3,0,0.4c0.1,0.1,0.2,0.2,0.3,0.3c0.2,0.1,0.5,0.1,0.8,0c0.2-0.1,0.4-0.3,0.5-0.5
				c0.1-0.2,0.2-0.4,0.2-0.6c0-0.2-0.1-0.4-0.1-0.5c-0.1-0.1-0.2-0.2-0.2-0.3C29.9,9.8,29.8,9.7,29.8,9.7z"/>
		</g>
		<path class="st0" d="M28.6,14.4C29,22,22.6,25.9,15.3,25.9s-13.1-5-13.1-11.1S8.1,3.7,15.3,3.7S28.4,8.3,28.6,14.4z"/>
		<path class="st1" d="M14.4,6.4c0,0,0.9-0.3,1.7,0.6C16.9,8,18,9.5,18,9.5c-0.1,0.5-0.4,0.9-1,1.1L14.4,6.4z"/>
		<ellipse class="st0" cx="6.7" cy="19.3" rx="4.5" ry="3.4"/>
		<path class="st0" d="M10.9,10c0,0,2.6-4.1,3.8-3.6c1.2,0.4,2.3,4.3,2.3,4.3"/>
		<path class="st0" d="M7.9,9.1L7.8,8c0,0-1.7-0.7-3.1-1C3.2,6.6,2.9,7,2.9,7l2.3,3.3L7.9,9.1z"/>
		<path class="st1" d="M11.4,5.2l0.9,0.5c0,0,4.2-1.1,7.5,0l-1.2-1C18.6,4.7,14.6,3.8,11.4,5.2z"/>
		<ellipse class="st1" cx="6.7" cy="19.3" rx="4.5" ry="3.4"/>
		<ellipse class="st0" cx="5.5" cy="19.3" rx="4.2" ry="3.4"/>
		<path class="st1" d="M3.9,20.9L3.9,20.9c-0.2,0-0.5-0.2-0.5-0.5v-2.3c0-0.2,0.2-0.5,0.5-0.5h0c0.2,0,0.5,0.2,0.5,0.5v2.3
			C4.4,20.7,4.2,20.9,3.9,20.9z"/>
		<path class="st1" d="M6.3,20.9L6.3,20.9c-0.2,0-0.5-0.2-0.5-0.5v-2.3c0-0.2,0.2-0.5,0.5-0.5h0c0.2,0,0.5,0.2,0.5,0.5v2.3
			C6.8,20.7,6.6,20.9,6.3,20.9z"/>
		<path class="st1" d="M7.6,9.2C8,9,8.2,8.7,8.1,8.1c0,0-2-0.8-3.4-1.2C3.2,6.6,2.9,7,2.9,7l2.3,3.3L7.6,9.2z"/>
		<path class="st0" d="M7.8,9.3c0,0-0.1-0.1-0.3-0.2C6.6,8.5,4,6.9,3.4,6.8c-0.9,0-0.9,0.7-0.9,1.3c0,0.4,0.3,4.1,0.3,4.1"/>
		<g>
			<path class="st2" d="M17.1,10.7C17.1,10.7,17.1,10.7,17.1,10.7c0,0,0-0.1,0-0.1c0-0.1-0.1-0.2-0.1-0.3c-0.1-0.3-0.2-0.6-0.4-1.1
				c-0.2-0.4-0.4-1-0.7-1.5c-0.2-0.3-0.3-0.6-0.5-0.8c-0.1-0.1-0.2-0.3-0.4-0.4c-0.1-0.1-0.3-0.2-0.5-0.2c-0.2,0-0.3,0.1-0.5,0.2
				c-0.2,0.1-0.3,0.2-0.4,0.3c-0.3,0.2-0.5,0.4-0.7,0.7c-0.4,0.5-0.8,0.9-1.1,1.3c-0.3,0.4-0.5,0.7-0.7,0.9C11,9.8,11,9.9,10.9,10
				c0,0,0,0,0,0.1c0,0,0,0,0,0c0,0,0,0,0,0c0,0,0,0,0-0.1c0-0.1,0.1-0.1,0.2-0.3c0.1-0.2,0.4-0.5,0.7-0.9C12,8.4,12.4,8,12.8,7.5
				C13,7.3,13.3,7,13.5,6.8c0.1-0.1,0.3-0.2,0.4-0.3c0.2-0.1,0.3-0.2,0.5-0.2c0.1,0,0.2,0,0.3,0c0.1,0,0.2,0.1,0.2,0.1
				c0.1,0.1,0.3,0.2,0.4,0.4c0.2,0.3,0.4,0.6,0.5,0.8c0.3,0.6,0.5,1.1,0.7,1.5c0.2,0.4,0.3,0.8,0.4,1.1c0,0.1,0.1,0.2,0.1,0.3
				C17,10.6,17,10.6,17.1,10.7C17.1,10.7,17.1,10.7,17.1,10.7z"/>
		</g>
		<g>
			<path class="st2" d="M18.6,4.7C18.6,4.7,18.6,4.7,18.6,4.7C18.6,4.7,18.6,4.7,18.6,4.7c0.1,0.1,0.2,0.2,0.3,0.3
				c0.2,0.2,0.5,0.4,0.8,0.7l0.1,0l-0.1,0c-0.4-0.1-1-0.2-1.5-0.3c-0.6-0.1-1.2-0.2-1.9-0.2c-1.6,0-3.1,0.3-3.9,0.5l0,0l0,0
				c-0.3-0.2-0.5-0.3-0.7-0.4c-0.1,0-0.1-0.1-0.2-0.1c0,0,0,0,0,0c0,0,0,0,0,0c0,0,0,0,0,0c0,0,0,0,0,0c0,0,0.1,0.1,0.2,0.1
				c0.2,0.1,0.4,0.2,0.7,0.4l0,0c0.4-0.1,1-0.3,1.7-0.4c0.3-0.1,0.7-0.1,1.1-0.1c0.4,0,0.8,0,1.2,0c0.7,0,1.3,0.1,1.9,0.2
				c0.6,0.1,1.1,0.2,1.5,0.3l0,0c-0.3-0.3-0.6-0.6-0.8-0.7C18.8,4.9,18.7,4.8,18.6,4.7C18.6,4.7,18.6,4.7,18.6,4.7
				C18.6,4.7,18.6,4.7,18.6,4.7z"/>
		</g>
		<g class="st3">
			<path class="st4" d="M13.7,16c0,0.1-0.1,0.2-0.3,0.3c-0.2,0.1-0.4,0.1-0.7,0.1c-0.3,0-0.5,0-0.7-0.1c-0.2-0.1-0.3-0.1-0.3-0.3
				c0-0.1,0.1-0.3,0.3-0.4c0.2-0.1,0.4-0.2,0.7-0.2c0.3,0,0.6,0.1,0.8,0.2C13.6,15.8,13.7,15.9,13.7,16z"/>
		</g>
		<g>
			<path class="st2" d="M8,16.5C8,16.5,8,16.5,8,16.5C8,16.5,8,16.4,8,16.5c-0.1-0.1-0.2-0.1-0.2-0.1c0,0-0.1-0.1-0.2-0.1
				c-0.2-0.1-0.6-0.3-1.1-0.4c-0.2,0-0.5-0.1-0.8-0.1c-0.3,0-0.6,0-0.9,0.1c-0.6,0.1-1.4,0.3-2,0.8c-0.2,0.1-0.3,0.2-0.4,0.4
				c-0.1,0.1-0.3,0.3-0.4,0.4c-0.2,0.3-0.4,0.6-0.5,0.9c-0.2,0.6-0.2,1.2-0.1,1.7c0.1,0.2,0.1,0.5,0.2,0.6c0.1,0.2,0.2,0.3,0.3,0.4
				C2,21.1,2,21.2,2,21.2c0,0,0.1,0.1,0.1,0.1c0,0,0,0,0.1,0.1c0,0,0,0,0,0c0,0,0,0,0,0c0,0,0,0-0.1-0.1c0,0-0.1-0.1-0.1-0.1
				c0,0-0.1-0.1-0.1-0.1c-0.1-0.1-0.2-0.2-0.3-0.4c-0.1-0.2-0.2-0.4-0.2-0.6c-0.1-0.5-0.1-1.1,0.1-1.7c0.1-0.2,0.1-0.3,0.2-0.5
				c0.1-0.2,0.2-0.3,0.3-0.4c0.1-0.1,0.2-0.3,0.4-0.4c0.1-0.1,0.3-0.2,0.4-0.4c0.6-0.4,1.3-0.7,2-0.8c0.3-0.1,0.6-0.1,0.9-0.1
				c0.3,0,0.6,0,0.8,0.1c0.5,0.1,0.9,0.3,1.1,0.4c0.1,0,0.1,0.1,0.2,0.1C7.9,16.4,7.9,16.4,8,16.5C8,16.4,8,16.5,8,16.5
				C8,16.5,8,16.5,8,16.5z"/>
		</g>
		<g>
			<path class="st2" d="M4.3,17.9c0,0,0,0,0,0.1c0,0.1,0,0.2,0,0.4c0,0.3,0,0.8,0.1,1.2c0,0.1,0,0.2,0,0.4c0,0.1,0,0.2,0,0.3
				c0,0.2-0.2,0.4-0.3,0.5c-0.2,0.1-0.3,0-0.4,0c0,0-0.1-0.1-0.1-0.1c0,0,0,0,0,0c0,0,0,0,0.1,0.1c0.1,0,0.2,0.1,0.3,0
				c0.1-0.1,0.2-0.2,0.3-0.4c0-0.1,0-0.2,0-0.3c0-0.1,0-0.2,0-0.4c0-0.5,0-0.9,0-1.2c0-0.2,0-0.3,0-0.4C4.3,18,4.3,17.9,4.3,17.9z"
				/>
		</g>
		<g>
			<path class="st2" d="M6.7,17.9c0,0,0,0,0,0.1c0,0.1,0,0.2,0,0.4c0,0.3,0,0.8,0.1,1.2c0,0.1,0,0.2,0,0.4c0,0.1,0,0.2,0,0.3
				c0,0.2-0.2,0.4-0.3,0.5c-0.2,0.1-0.3,0-0.4,0c0,0-0.1-0.1-0.1-0.1c0,0,0,0,0,0c0,0,0,0,0.1,0.1c0.1,0,0.2,0.1,0.3,0
				c0.1-0.1,0.2-0.2,0.3-0.4c0-0.1,0-0.2,0-0.3c0-0.1,0-0.2,0-0.4c0-0.5,0-0.9,0-1.2c0-0.2,0-0.3,0-0.4C6.7,18,6.7,17.9,6.7,17.9z"
				/>
		</g>
		<g>
			<path class="st2" d="M9.7,20C9.7,20,9.7,20,9.7,20c0,0.1,0,0.2-0.1,0.2c-0.1,0.1-0.2,0.3-0.3,0.6c-0.2,0.2-0.4,0.5-0.6,0.7
				c-0.1,0.1-0.3,0.2-0.5,0.4C8,22,7.9,22.1,7.7,22.2c-0.4,0.2-0.8,0.3-1.1,0.4c-0.4,0.1-0.7,0.1-1,0.1c-0.3,0-0.5,0-0.7,0
				c-0.1,0-0.1,0-0.2,0c0,0-0.1,0-0.1,0c0,0,0,0,0.1,0c0,0,0.1,0,0.2,0c0.2,0,0.4,0,0.7,0c0.3,0,0.6,0,1-0.1
				c0.4-0.1,0.7-0.2,1.1-0.4C7.8,22.1,8,22,8.2,21.9c0.2-0.1,0.3-0.2,0.4-0.4c0.3-0.2,0.5-0.5,0.6-0.7c0.2-0.2,0.3-0.4,0.3-0.6
				C9.6,20.2,9.7,20.1,9.7,20C9.7,20,9.7,20,9.7,20z"/>
		</g>
		<g>
			<path class="st4" d="M4.3,17.8C4.3,17.8,4.3,17.8,4.3,17.8c-0.1-0.1-0.2-0.2-0.3-0.2c-0.1,0-0.3,0-0.4,0.2
				c-0.1,0.1-0.1,0.1-0.1,0.2c0,0.1,0,0.2,0,0.3c0,0.4,0,0.7,0,1c0,0.1,0,0.2,0,0.3c0,0.1,0,0.1,0,0.1c0,0,0,0,0-0.1
				c0-0.1,0-0.2,0-0.3c0-0.2,0-0.6,0-1c0-0.1,0-0.2,0-0.3c0-0.1,0.1-0.2,0.1-0.2c0.1-0.1,0.3-0.2,0.4-0.2
				C4.1,17.6,4.2,17.7,4.3,17.8C4.3,17.8,4.3,17.8,4.3,17.8C4.3,17.8,4.3,17.8,4.3,17.8z"/>
		</g>
		<g>
			<path class="st4" d="M5.9,18c0,0,0,0.5,0,1c0,0.6,0,1,0,1s0-0.5,0-1C5.8,18.5,5.9,18,5.9,18z"/>
		</g>
		<g>
			<path class="st4" d="M5.1,16.1C5.1,16.1,5.1,16.1,5.1,16.1c-0.1,0-0.1,0-0.2,0c-0.1,0-0.3,0-0.6,0.1c-0.5,0.1-1.1,0.3-1.7,0.8
				c-0.6,0.5-0.9,1-1.1,1.5c-0.1,0.2-0.1,0.4-0.2,0.5c0,0.1,0,0.1,0,0.1c0,0,0,0.1,0,0.1c0,0,0,0,0-0.1c0,0,0-0.1,0-0.2
				c0-0.1,0.1-0.3,0.2-0.5c0.2-0.4,0.5-1,1.1-1.5c0.6-0.5,1.2-0.7,1.7-0.8c0.2,0,0.4,0,0.6,0C5,16.1,5.1,16.1,5.1,16.1
				C5.1,16.1,5.1,16.1,5.1,16.1z"/>
		</g>
		<g>
			<path class="st4" d="M2.9,11.7C2.9,11.7,2.9,11.7,2.9,11.7c0,0.1,0,0.1-0.1,0.2c0,0.1-0.1,0.1-0.1,0.2c0,0.1-0.1,0.2-0.1,0.3
				c0,0.1-0.1,0.2-0.1,0.4c0,0.1-0.1,0.3-0.1,0.4c-0.1,0.3-0.1,0.6-0.2,1c0,0.3,0,0.7,0,1c0,0.2,0,0.3,0,0.4c0,0.1,0,0.3,0,0.4
				c0,0.1,0,0.2,0,0.3c0,0.1,0,0.2,0,0.2c0,0.1,0,0.1,0,0.1c0,0,0,0.1,0,0.1c0,0,0,0,0,0c0,0,0-0.1,0-0.1c0-0.1,0-0.1,0-0.2
				c0-0.1,0-0.2,0-0.3c0-0.1,0-0.2,0-0.4c0-0.1,0-0.3,0-0.4c0-0.3,0-0.6,0-1c0-0.3,0.1-0.7,0.2-1c0-0.1,0.1-0.3,0.1-0.4
				c0-0.1,0.1-0.2,0.1-0.4c0-0.1,0.1-0.2,0.1-0.3c0-0.1,0.1-0.2,0.1-0.2C2.8,11.8,2.8,11.8,2.9,11.7C2.9,11.7,2.9,11.7,2.9,11.7z"/>
		</g>
		<g>
			<path class="st4" d="M3,7.2c0,0,0,0-0.1,0.1C2.9,7.4,2.8,7.6,2.8,7.7c0,0.2,0,0.4-0.1,0.7c0,0.2,0,0.5,0,0.8
				c0,0.6,0.1,1.1,0.1,1.5c0,0.2,0,0.3,0.1,0.4c0,0,0,0.1,0,0.1c0,0,0,0,0,0c0,0,0,0,0,0c0,0,0-0.1,0-0.1c0-0.1,0-0.3-0.1-0.4
				c-0.1-0.4-0.1-0.9-0.1-1.5c0-0.3,0-0.6,0-0.8c0-0.2,0-0.5,0.1-0.7c0-0.2,0.1-0.3,0.2-0.4C2.9,7.3,3,7.2,3,7.2C3,7.2,3,7.2,3,7.2z
				"/>
		</g>
		<g>
			<path class="st4" d="M11.4,4.5C11.4,4.5,11.4,4.5,11.4,4.5c-0.1,0-0.1,0.1-0.2,0.1c-0.1,0-0.3,0.1-0.6,0.2
				c-0.5,0.2-1.2,0.4-1.9,0.8C8,5.9,7.3,6.2,6.9,6.6C6.7,6.7,6.6,6.9,6.5,7C6.4,7,6.4,7.1,6.3,7.1c0,0,0,0,0,0c0,0,0,0,0,0
				c0,0,0.1-0.1,0.1-0.1c0.1-0.1,0.3-0.3,0.5-0.4c0.4-0.3,1-0.7,1.8-1.1c0.7-0.3,1.4-0.6,1.9-0.7c0.3-0.1,0.5-0.1,0.6-0.2
				C11.3,4.5,11.3,4.5,11.4,4.5C11.4,4.5,11.4,4.5,11.4,4.5z"/>
		</g>
		<g>
			<path class="st4" d="M14.4,6.6C14.4,6.6,14.4,6.6,14.4,6.6c-0.1,0.1-0.1,0.1-0.2,0.1C14.2,6.8,14,6.9,13.9,7
				c-0.2,0.1-0.4,0.3-0.6,0.5c-0.2,0.2-0.4,0.4-0.7,0.6c-0.2,0.2-0.4,0.5-0.6,0.7c-0.2,0.2-0.3,0.4-0.5,0.6
				c-0.1,0.2-0.2,0.3-0.3,0.4c0,0-0.1,0.1-0.1,0.1c0,0,0,0,0,0c0,0,0,0,0,0c0,0,0-0.1,0.1-0.1c0.1-0.1,0.2-0.3,0.3-0.4
				c0.1-0.2,0.3-0.4,0.5-0.6c0.2-0.2,0.4-0.5,0.6-0.7c0.2-0.2,0.5-0.5,0.7-0.6c0.2-0.2,0.4-0.3,0.6-0.5c0.2-0.1,0.3-0.2,0.4-0.3
				C14.3,6.7,14.4,6.7,14.4,6.6C14.4,6.6,14.4,6.6,14.4,6.6z"/>
		</g>
		<g>
			<path class="st4" d="M27.8,12.6c0,0,0,0.1,0.1,0.2c0.1,0.1,0.1,0.3,0.2,0.6c0.1,0.2,0.1,0.4,0.1,0.6c0,0.1,0,0.2,0,0.2
				c0,0,0-0.1,0-0.2c0-0.1-0.1-0.3-0.1-0.6c-0.1-0.2-0.1-0.4-0.2-0.6C27.8,12.7,27.8,12.6,27.8,12.6z"/>
		</g>
		<g>
			<path class="st2" d="M25.7,22.5C25.7,22.5,25.7,22.6,25.7,22.5c-0.1,0.1-0.1,0.1-0.2,0.1c-0.1,0-0.1,0.1-0.2,0.1
				c0,0-0.1,0.1-0.1,0.1c0,0-0.1,0.1-0.2,0.1c-0.4,0.3-1.1,0.7-1.9,1.1c-0.2,0.1-0.4,0.2-0.7,0.3c-0.1,0-0.2,0.1-0.4,0.2
				c-0.1,0-0.1,0.1-0.2,0.1c-0.1,0-0.1,0-0.2,0.1c-0.1,0-0.3,0.1-0.4,0.1c-0.1,0-0.3,0.1-0.4,0.1c-0.1,0-0.3,0.1-0.4,0.1
				c-0.1,0-0.3,0.1-0.4,0.1c-0.6,0.2-1.2,0.3-1.9,0.4c-0.7,0.1-1.4,0.2-2.1,0.2c-0.7,0-1.4,0-2.1-0.1c-0.1,0-0.2,0-0.2,0
				c-0.1,0-0.2,0-0.2,0c-0.2,0-0.3,0-0.5-0.1c-0.2,0-0.3-0.1-0.5-0.1c-0.1,0-0.2,0-0.2,0c-0.1,0-0.2,0-0.2-0.1
				c-1.2-0.3-2.3-0.6-3.1-1c-0.9-0.4-1.5-0.8-1.9-1c-0.2-0.1-0.4-0.3-0.5-0.3c-0.1,0-0.1-0.1-0.1-0.1c0,0,0,0,0,0s0,0,0,0
				c0,0,0.1,0.1,0.1,0.1c0.1,0.1,0.3,0.2,0.5,0.3c0.4,0.3,1.1,0.7,1.9,1c0.9,0.4,1.9,0.7,3.1,1c0.1,0,0.2,0,0.2,0.1
				c0.1,0,0.2,0,0.2,0c0.2,0,0.3,0.1,0.5,0.1c0.2,0,0.3,0,0.5,0.1c0.1,0,0.2,0,0.2,0c0.1,0,0.2,0,0.2,0c0.7,0.1,1.4,0.1,2.1,0.1
				c0.7,0,1.4-0.1,2.1-0.2c0.7-0.1,1.3-0.3,1.9-0.4c0.1,0,0.3-0.1,0.4-0.1c0.1,0,0.3-0.1,0.4-0.1c0.1,0,0.3-0.1,0.4-0.1
				c0.1-0.1,0.3-0.1,0.4-0.1c0.1,0,0.1,0,0.2-0.1c0.1,0,0.1-0.1,0.2-0.1c0.1-0.1,0.2-0.1,0.4-0.2c0.2-0.1,0.5-0.2,0.7-0.3
				c0.8-0.4,1.5-0.8,1.9-1.1c0.1,0,0.1-0.1,0.2-0.1c0,0,0.1-0.1,0.1-0.1c0.1-0.1,0.2-0.1,0.2-0.1C25.6,22.6,25.6,22.6,25.7,22.5
				C25.7,22.6,25.7,22.5,25.7,22.5z"/>
		</g>
		<polygon class="st0" points="22,23.5 23.7,27.9 24.9,27.9 25.2,27.5 25.5,27.9 25.9,27.9 26,20.9 		"/>
		<path class="st0" d="M11.1,24.1l1.5,3.8h1.4l0.3-0.4l0.3,0.4h0.3c0,0,0.1-4.3,0-4.4C14.6,23.4,11.1,24.1,11.1,24.1z"/>
		<g>
			<path class="st4" d="M28.2,15.6C28.2,15.6,28.2,15.6,28.2,15.6C28.2,15.6,28.2,15.6,28.2,15.6c0,0.2,0,0.3,0,0.4
				c0,0.1,0,0.1,0,0.2c0,0.1,0,0.2,0,0.2c0,0.2-0.1,0.4-0.1,0.6c0,0.1-0.1,0.2-0.1,0.3c0,0.1-0.1,0.2-0.1,0.4
				c-0.1,0.3-0.2,0.5-0.3,0.8c-0.2,0.5-0.5,1.1-0.9,1.7c-0.4,0.6-0.8,1.1-1.2,1.5c-0.2,0.2-0.4,0.4-0.6,0.6
				c-0.1,0.1-0.2,0.2-0.3,0.3c-0.1,0.1-0.2,0.1-0.3,0.2c-0.2,0.1-0.3,0.3-0.5,0.4c-0.1,0.1-0.1,0.1-0.2,0.1c-0.1,0-0.1,0.1-0.2,0.1
				c-0.1,0.1-0.2,0.1-0.2,0.1c0,0,0,0-0.1,0c0,0,0,0,0,0c0,0,0,0,0,0c0,0,0,0,0.1,0c0.1,0,0.1-0.1,0.2-0.2c0.1,0,0.1-0.1,0.2-0.1
				c0.1,0,0.1-0.1,0.2-0.1c0.1-0.1,0.3-0.2,0.5-0.4c0.1-0.1,0.2-0.1,0.3-0.2c0.1-0.1,0.2-0.2,0.3-0.3c0.2-0.2,0.4-0.4,0.6-0.6
				c0.4-0.4,0.8-0.9,1.2-1.5c0.4-0.6,0.6-1.2,0.9-1.7c0.1-0.3,0.2-0.5,0.3-0.8c0-0.1,0.1-0.2,0.1-0.4c0-0.1,0.1-0.2,0.1-0.3
				c0.1-0.2,0.1-0.4,0.1-0.6c0-0.1,0-0.2,0-0.2c0-0.1,0-0.1,0-0.2C28.2,15.8,28.2,15.7,28.2,15.6C28.2,15.6,28.2,15.6,28.2,15.6
				C28.2,15.6,28.2,15.6,28.2,15.6z"/>
		</g>
		<g>
			<g class="st3">
				<path class="st4" d="M26.3,11.8c-0.4-1-1.3-1.9-2.3-2.3c-0.8-0.3-1.7,0.3-1.8,1.1c0,0,0,0,0,0c0,0.6,0.2,1.2,0.5,1.8
					c0.3,0.5,0.7,1.1,0.9,1.7c0.4,1,0.4,2.1,0,3c-0.2,0.6-0.6,1.3-0.3,1.9c0.2,0.4,0.7,0.6,1.1,0.6c0.9-0.1,1.3-0.9,1.8-1.6
					c0.3-0.6,0.6-1.5,0.6-2.2C27.1,14.4,26.9,13.1,26.3,11.8z"/>
			</g>
			<g class="st3">
				<path class="st4" d="M23,9.3C23,9.3,23.1,9.3,23,9.3C23.1,9.3,23.1,9.3,23,9.3L23,9.3z"/>
			</g>
		</g>
	</g>
	<g>
		<path class="st2" d="M12.9,14.6c0,0-0.1-0.1-0.2-0.3c0-0.1-0.1-0.2-0.2-0.3c-0.1-0.1-0.2-0.2-0.3-0.2c-0.1,0-0.3,0.1-0.3,0.1
			c-0.1,0.1-0.2,0.2-0.2,0.3c-0.1,0.2-0.1,0.3-0.2,0.3c0,0-0.1-0.1,0-0.4c0-0.1,0.1-0.2,0.2-0.4c0.1-0.1,0.3-0.2,0.5-0.2
			c0.1,0,0.2,0,0.3,0.1c0.1,0,0.1,0.1,0.2,0.2c0.1,0.1,0.2,0.3,0.2,0.4C13,14.4,13,14.6,12.9,14.6z"/>
	</g>
	<path class="st2" d="M6.4,14c0,0.3-0.3,0.6-0.6,0.6S5.1,14.4,5.1,14c0-0.3,0.3-0.6,0.6-0.6S6.4,13.7,6.4,14z"/>
	<g>
		<path class="st4" d="M26.1,8.8C26.1,8.8,26.1,8.8,26.1,8.8C26.1,8.8,26,8.7,26,8.7c0-0.1-0.1-0.1-0.2-0.2
			c-0.1-0.1-0.2-0.2-0.3-0.3c-0.1-0.1-0.2-0.2-0.3-0.3c-0.1-0.1-0.2-0.2-0.4-0.4c-0.3-0.3-0.6-0.5-0.9-0.8c-0.3-0.3-0.7-0.5-1-0.7
			c-0.2-0.1-0.3-0.2-0.5-0.3c-0.1-0.1-0.3-0.2-0.4-0.2c-0.1-0.1-0.2-0.1-0.3-0.2c-0.1-0.1-0.2-0.1-0.3-0.1c-0.1,0-0.1-0.1-0.2-0.1
			c0,0-0.1,0-0.1,0c0,0,0,0,0.1,0c0,0,0.1,0,0.2,0.1c0.1,0,0.2,0.1,0.3,0.1c0.1,0,0.2,0.1,0.3,0.2c0.1,0.1,0.3,0.1,0.4,0.2
			c0.1,0.1,0.3,0.2,0.5,0.3c0.3,0.2,0.7,0.4,1,0.7c0.3,0.3,0.6,0.5,0.9,0.8c0.1,0.1,0.3,0.3,0.4,0.4c0.1,0.1,0.2,0.2,0.3,0.3
			c0.1,0.1,0.2,0.2,0.2,0.3c0.1,0.1,0.1,0.2,0.2,0.2C26,8.7,26.1,8.8,26.1,8.8C26.1,8.8,26.1,8.8,26.1,8.8z"/>
	</g>
	<g>
		<path class="st4" d="M19.6,6.1C19.6,6.1,19.6,6,19.6,6.1C19.5,6,19.4,6,19.3,6c-0.1,0-0.2-0.1-0.3-0.1c-0.1,0-0.3-0.1-0.4-0.1
			c-0.1,0-0.2,0-0.2-0.1c-0.1,0-0.2,0-0.3-0.1c-0.2,0-0.4-0.1-0.6-0.1c-0.4-0.1-0.9-0.1-1.3-0.1c-0.5,0-0.9,0-1.3,0
			c-0.2,0-0.4,0-0.6,0.1c-0.1,0-0.2,0-0.3,0c-0.1,0-0.2,0-0.2,0c-0.2,0-0.3,0.1-0.4,0.1c-0.1,0-0.2,0.1-0.3,0.1
			c-0.1,0-0.1,0-0.2,0.1c0,0-0.1,0-0.1,0c0,0,0,0,0.1,0c0,0,0.1,0,0.2-0.1c0.1,0,0.2-0.1,0.3-0.1c0.1,0,0.3-0.1,0.4-0.1
			c0.1,0,0.2,0,0.2-0.1c0.1,0,0.2,0,0.3,0c0.2,0,0.4-0.1,0.6-0.1c0.4,0,0.9-0.1,1.3-0.1c0.5,0,0.9,0.1,1.3,0.1
			c0.2,0,0.4,0.1,0.6,0.1c0.1,0,0.2,0,0.3,0.1c0.1,0,0.2,0,0.2,0.1c0.2,0,0.3,0.1,0.4,0.1c0.1,0,0.2,0.1,0.3,0.1
			C19.4,6,19.5,6,19.6,6.1C19.6,6,19.6,6.1,19.6,6.1z"/>
	</g>
</g>
</svg>
